<?xml version="1.0" standalone="no"?>
<!DOCTYPE svg PUBLIC "-//W3C//DTD SVG 20010904//EN"
 "http://www.w3.org/TR/2001/REC-SVG-20010904/DTD/svg10.dtd">
<svg version="1.0" xmlns="http://www.w3.org/2000/svg"
 width="3333.000000pt" height="3333.000000pt" viewBox="0 0 3333.000000 3333.000000"
 preserveAspectRatio="xMidYMid meet">
<metadata>
Created by potrace 1.14, written by Peter Selinger 2001-2017
</metadata>
<g transform="translate(0.000000,3333.000000) scale(0.100000,-0.100000)"
fill="#000000" stroke="none">
<path d="M16330 30660 c-556 -34 -1046 -129 -1560 -300 -728 -242 -1364 -599
-1970 -1103 -186 -156 -571 -541 -727 -727 -327 -393 -571 -766 -788 -1205
-319 -645 -511 -1304 -590 -2023 -35 -320 -36 -509 -33 -3782 4 -2931 6 -3240
21 -3390 82 -808 275 -1482 623 -2170 761 -1510 2130 -2633 3756 -3084 347
-96 675 -156 1078 -196 173 -18 696 -24 890 -11 1342 89 2533 573 3556 1446
166 140 489 463 629 629 872 1022 1362 2229 1445 3556 16 255 8 6756 -8 6895
-57 483 -103 731 -198 1073 -451 1626 -1574 2995 -3084 3756 -693 350 -1398
551 -2176 621 -203 19 -677 27 -864 15z m590 -2010 c830 -58 1592 -353 2238
-869 763 -609 1285 -1494 1446 -2451 53 -317 51 -144 51 -3680 0 -3643 5
-3349 -61 -3710 -161 -878 -612 -1671 -1297 -2277 -608 -537 -1335 -860 -2182
-970 -217 -28 -712 -25 -935 5 -718 97 -1344 350 -1900 768 -219 165 -370 300
-548 494 -557 606 -909 1348 -1022 2158 -41 290 -41 367 -38 3662 4 3498 -1
3237 64 3590 218 1195 960 2219 2034 2806 645 353 1423 524 2150 474z"/>
<path d="M4560 29679 c-176 -17 -365 -91 -508 -199 -143 -108 -219 -206 -366
-475 -613 -1119 -952 -2362 -1026 -3765 -13 -249 -13 -874 0 -1095 70 -1187
341 -2325 795 -3340 101 -227 302 -619 367 -716 62 -93 181 -213 270 -272 412
-272 951 -221 1297 125 264 264 361 649 256 1013 -17 58 -65 164 -140 309
-220 427 -360 768 -490 1196 -152 501 -248 1000 -301 1560 -21 231 -30 834
-15 1100 63 1143 330 2108 826 2985 98 174 136 282 156 450 22 182 -14 387
-100 560 -191 387 -588 606 -1021 564z"/>
<path d="M28565 29679 c-303 -29 -585 -199 -750 -453 -113 -174 -165 -349
-165 -564 0 -214 38 -341 176 -590 476 -854 731 -1766 805 -2877 15 -223 15
-806 0 -1015 -73 -1025 -328 -1983 -750 -2810 -58 -113 -119 -234 -137 -270
-18 -36 -45 -105 -60 -155 -27 -85 -28 -101 -28 -280 0 -179 2 -195 27 -279
90 -291 268 -506 527 -636 455 -229 1023 -80 1304 344 30 44 102 173 160 286
786 1532 1125 3313 980 5145 -103 1302 -445 2471 -1032 3525 -101 182 -159
264 -245 347 -218 210 -510 312 -812 282z"/>
<path d="M8034 27655 c-219 -39 -388 -127 -540 -279 -89 -89 -137 -158 -237
-342 -309 -567 -506 -1219 -574 -1896 -21 -212 -23 -709 -4 -903 69 -698 240
-1290 547 -1885 141 -272 236 -396 388 -505 84 -60 230 -128 336 -157 74 -20
107 -23 260 -22 161 0 182 3 265 28 357 108 608 367 701 721 22 84 27 122 27
240 1 220 -31 332 -163 572 -341 624 -450 1356 -304 2044 60 287 131 483 284
784 163 321 185 396 184 620 -2 173 -29 290 -104 440 -195 392 -639 618 -1066
540z"/>
<path d="M24954 27655 c-310 -55 -578 -255 -720 -537 -24 -48 -56 -127 -71
-175 -25 -83 -27 -100 -27 -278 0 -257 10 -290 182 -615 238 -451 352 -941
339 -1460 -12 -466 -119 -889 -322 -1280 -188 -362 -200 -399 -200 -650 0
-153 3 -185 23 -254 68 -234 202 -429 385 -560 85 -61 234 -131 332 -157 113
-30 320 -37 438 -15 243 46 454 171 602 358 188 238 456 846 584 1323 127 476
179 911 168 1420 -16 764 -195 1480 -538 2155 -121 239 -179 330 -271 426
-191 199 -421 301 -698 309 -81 3 -154 -1 -206 -10z"/>
<path d="M7564 18656 c-332 -54 -614 -267 -754 -569 -92 -197 -109 -383 -66
-712 98 -741 266 -1440 509 -2115 586 -1625 1584 -3070 2897 -4195 1487 -1274
3304 -2079 5253 -2325 131 -16 242 -30 247 -30 7 0 10 -714 10 -2020 l0 -2020
-1572 -3 c-1420 -3 -1579 -5 -1638 -20 -407 -103 -684 -387 -772 -792 -21
-101 -16 -324 11 -429 85 -332 318 -593 629 -706 179 -65 -151 -60 4352 -60
3615 0 4107 2 4177 15 483 92 823 499 823 985 0 471 -296 852 -765 982 l-80
23 -1577 3 -1578 3 0 2019 c0 1111 3 2020 8 2020 23 0 364 43 480 60 1817 273
3520 1037 4926 2210 1831 1529 3052 3654 3445 5997 84 495 102 735 68 888 -87
390 -371 683 -754 777 -125 31 -332 31 -456 0 -302 -75 -544 -267 -677 -537
-62 -125 -83 -209 -114 -455 -342 -2659 -1964 -4944 -4363 -6143 -918 -459
-1890 -727 -2968 -817 -215 -18 -767 -24 -1005 -11 -1833 101 -3497 777 -4880
1985 -151 131 -503 478 -644 636 -984 1092 -1636 2396 -1915 3830 -36 185 -71
412 -101 651 -62 503 -455 867 -955 884 -73 3 -152 -1 -201 -9z"/>
</g>
</svg>
